<svg version="1.0" xmlns="http://www.w3.org/2000/svg"
 width="612.000000pt" height="612.000000pt" viewBox="0 0 612.000000 612.000000"
 preserveAspectRatio="xMidYMid meet">

<g transform="translate(0.000000,612.000000) scale(0.100000,-0.100000)"
fill="#000000" stroke="none">
<path d="M2805 4545 c-221 -41 -379 -163 -470 -360 -58 -124 -93 -331 -81
-470 l6 -71 -47 -12 c-27 -7 -91 -33 -143 -59 -79 -38 -108 -59 -181 -132 -70
-70 -94 -103 -127 -171 -42 -86 -82 -227 -82 -288 0 -28 -10 -42 -62 -90 -160
-148 -235 -322 -210 -486 44 -282 358 -533 753 -602 147 -26 297 -6 418 56
l56 28 49 -93 c82 -158 156 -213 248 -186 56 17 102 69 134 153 30 79 55 102
211 189 319 177 698 286 1072 308 123 7 135 9 152 30 11 13 19 34 19 47 0 25
-5 34 -65 129 -62 96 -100 209 -129 378 -8 48 -17 91 -20 96 -3 4 24 27 59 50
144 96 259 255 302 421 27 105 22 273 -11 385 -74 246 -234 421 -450 491 -147
49 -332 34 -497 -39 l-37 -16 -25 37 c-89 134 -255 238 -439 276 -94 19 -303
20 -403 1z m373 -141 c193 -39 348 -163 407 -326 l20 -56 71 44 c105 66 200
96 315 102 72 3 111 0 155 -13 222 -64 379 -279 392 -538 6 -119 -7 -185 -55
-286 -46 -97 -148 -200 -252 -255 -66 -35 -76 -37 -124 -31 -48 7 -50 9 -32
21 94 66 209 160 239 196 80 91 123 201 97 245 -9 16 -10 16 -11 -6 -1 -74
-129 -227 -275 -327 -131 -90 -205 -124 -270 -124 -31 0 -88 -5 -126 -11 -39
-6 -73 -9 -75 -6 -2 2 15 46 40 98 24 52 52 123 62 159 24 85 25 260 1 346
-16 60 -76 199 -82 192 -2 -2 1 -24 7 -48 18 -73 15 -255 -6 -345 -31 -137
-98 -280 -189 -404 -28 -38 -53 -59 -86 -73 -114 -49 -180 -82 -268 -134 -82
-49 -99 -56 -133 -51 -50 6 -160 79 -232 153 -62 64 -138 161 -138 177 0 6 -3
8 -6 4 -11 -10 76 -170 133 -244 30 -40 77 -91 104 -114 32 -27 49 -49 49 -64
0 -15 -28 -51 -81 -106 -45 -46 -115 -128 -156 -181 -48 -64 -82 -100 -99
-104 -77 -20 -264 64 -382 171 -79 71 -47 22 36 -57 82 -77 158 -123 256 -153
66 -21 73 -25 94 -66 73 -142 -52 -249 -292 -249 -272 0 -588 169 -697 373
-44 83 -51 184 -19 269 29 78 97 166 181 235 l69 57 0 54 c0 130 62 295 147
391 85 97 199 157 363 191 l85 17 -5 49 c-3 27 -5 121 -5 209 1 122 5 176 19
225 53 192 161 317 323 371 123 41 299 50 431 23z m949 -1479 c32 -7 44 -36
65 -155 26 -144 60 -254 103 -324 19 -32 34 -60 33 -61 -2 -2 -64 -10 -138
-20 -382 -47 -773 -175 -1037 -339 -51 -31 -116 -76 -144 -99 -45 -37 -55 -51
-68 -102 -19 -70 -40 -88 -72 -60 -24 22 -209 392 -209 419 0 27 49 92 145
194 256 271 536 442 850 518 141 34 381 48 472 29z"/>
</g>
</svg>
